<?xml version="1.0" encoding="UTF-8" standalone="no"?>
<!DOCTYPE svg PUBLIC "-//W3C//DTD SVG 1.1//EN"
 "http://www.w3.org/Graphics/SVG/1.1/DTD/svg11.dtd">
<!-- Generated by graphviz version 2.47.3 (20210619.1520)
 -->
<!-- Title: dependencies Pages: 1 -->
<svg width="655pt" height="174pt"
 viewBox="0.00 0.00 655.00 173.80" xmlns="http://www.w3.org/2000/svg" xmlns:xlink="http://www.w3.org/1999/xlink">
<g id="graph0" class="graph" transform="scale(1 1) rotate(0) translate(4 169.8)">
<title>dependencies</title>
<polygon fill="white" stroke="transparent" points="-4,4 -4,-169.8 651,-169.8 651,4 -4,4"/>
<text text-anchor="middle" x="323.5" y="-8.2" font-family="sans-serif" font-size="14.00">dependencies</text>
<g id="clust1" class="cluster">
<title>cluster_AppModule</title>
<polygon fill="none" stroke="black" stroke-dasharray="1,5" points="8,-32.8 8,-157.8 639,-157.8 639,-32.8 8,-32.8"/>
</g>
<g id="clust3" class="cluster">
<title>cluster_AppModule_imports</title>
<polygon fill="none" stroke="black" points="154,-40.8 154,-92.8 631,-92.8 631,-40.8 154,-40.8"/>
</g>
<g id="clust6" class="cluster">
<title>cluster_AppModule_providers</title>
<polygon fill="none" stroke="black" points="16,-40.8 16,-92.8 146,-92.8 146,-40.8 16,-40.8"/>
</g>
<!-- BookingsModule -->
<g id="node1" class="node">
<title>BookingsModule</title>
<polygon fill="#8dd3c7" stroke="black" points="622.72,-84.8 619.72,-88.8 598.72,-88.8 595.72,-84.8 509.28,-84.8 509.28,-48.8 622.72,-48.8 622.72,-84.8"/>
<text text-anchor="middle" x="566" y="-62.6" font-family="Times,serif" font-size="14.00">BookingsModule</text>
</g>
<!-- AppModule -->
<g id="node5" class="node">
<title>AppModule</title>
<polygon fill="#8dd3c7" stroke="black" points="356.66,-149.8 353.66,-153.8 332.66,-153.8 329.66,-149.8 273.34,-149.8 273.34,-113.8 356.66,-113.8 356.66,-149.8"/>
<text text-anchor="middle" x="315" y="-127.6" font-family="Times,serif" font-size="14.00">AppModule</text>
</g>
<!-- BookingsModule&#45;&gt;AppModule -->
<g id="edge1" class="edge">
<title>BookingsModule&#45;&gt;AppModule</title>
<path fill="none" stroke="black" d="M566,-85.08C566,-106.12 566,-137.8 566,-137.8 566,-137.8 366.73,-137.8 366.73,-137.8"/>
<polygon fill="black" stroke="black" points="366.73,-134.3 356.73,-137.8 366.73,-141.3 366.73,-134.3"/>
</g>
<!-- LocationsModule -->
<g id="node2" class="node">
<title>LocationsModule</title>
<polygon fill="#8dd3c7" stroke="black" points="491.26,-84.8 488.26,-88.8 467.26,-88.8 464.26,-84.8 376.74,-84.8 376.74,-48.8 491.26,-48.8 491.26,-84.8"/>
<text text-anchor="middle" x="434" y="-62.6" font-family="Times,serif" font-size="14.00">LocationsModule</text>
</g>
<!-- LocationsModule&#45;&gt;AppModule -->
<g id="edge2" class="edge">
<title>LocationsModule&#45;&gt;AppModule</title>
<path fill="none" stroke="black" d="M434,-84.82C434,-102.17 434,-125.8 434,-125.8 434,-125.8 366.95,-125.8 366.95,-125.8"/>
<polygon fill="black" stroke="black" points="366.95,-122.3 356.95,-125.8 366.95,-129.3 366.95,-122.3"/>
</g>
<!-- SlotsModule -->
<g id="node3" class="node">
<title>SlotsModule</title>
<polygon fill="#8dd3c7" stroke="black" points="358.56,-84.8 355.56,-88.8 334.56,-88.8 331.56,-84.8 271.44,-84.8 271.44,-48.8 358.56,-48.8 358.56,-84.8"/>
<text text-anchor="middle" x="315" y="-62.6" font-family="Times,serif" font-size="14.00">SlotsModule</text>
</g>
<!-- SlotsModule&#45;&gt;AppModule -->
<g id="edge3" class="edge">
<title>SlotsModule&#45;&gt;AppModule</title>
<path fill="none" stroke="black" d="M315,-84.91C315,-84.91 315,-103.79 315,-103.79"/>
<polygon fill="black" stroke="black" points="311.5,-103.79 315,-113.79 318.5,-103.79 311.5,-103.79"/>
</g>
<!-- UsersModule -->
<g id="node4" class="node">
<title>UsersModule</title>
<polygon fill="#8dd3c7" stroke="black" points="253.92,-84.8 250.92,-88.8 229.92,-88.8 226.92,-84.8 162.08,-84.8 162.08,-48.8 253.92,-48.8 253.92,-84.8"/>
<text text-anchor="middle" x="208" y="-62.6" font-family="Times,serif" font-size="14.00">UsersModule</text>
</g>
<!-- UsersModule&#45;&gt;AppModule -->
<g id="edge4" class="edge">
<title>UsersModule&#45;&gt;AppModule</title>
<path fill="none" stroke="black" d="M208,-84.82C208,-102.17 208,-125.8 208,-125.8 208,-125.8 263.32,-125.8 263.32,-125.8"/>
<polygon fill="black" stroke="black" points="263.32,-129.3 273.32,-125.8 263.32,-122.3 263.32,-129.3"/>
</g>
<!-- AppService -->
<g id="node6" class="node">
<title>AppService</title>
<ellipse fill="#fdb462" stroke="black" cx="81" cy="-66.8" rx="56.74" ry="18"/>
<text text-anchor="middle" x="81" y="-62.6" font-family="Times,serif" font-size="14.00">AppService</text>
</g>
<!-- AppService&#45;&gt;AppModule -->
<g id="edge5" class="edge">
<title>AppService&#45;&gt;AppModule</title>
<path fill="none" stroke="black" d="M81,-85.08C81,-106.12 81,-137.8 81,-137.8 81,-137.8 263.17,-137.8 263.17,-137.8"/>
<polygon fill="black" stroke="black" points="263.17,-141.3 273.17,-137.8 263.17,-134.3 263.17,-141.3"/>
</g>
</g>
</svg>
